# xmcd
# 
# Track frame offsets:
#     150
#     18565
#     40352
#     56975
#     77310
#     94810
#     113007
#     130800
#     150320
#     171047
#     195710
#     215697
#     241572
#     268250
# 
# Disc length: 3873
# 
# Revision: 2
# Processed by: cddbd v1.5.2PL0 Copyright (c) Steve Scherf et al.
# Submitted via: BonkEnc v1.0.8
# 
DISCID=b60f1f0e
DTITLE=都はるみ - 都はるみゴールデンベスト
DYEAR=2002
DGENRE=World
TTITLE0=アンコ椿は恋の花
TTITLE1=涙の連絡船
TTITLE2=好きになった人
TTITLE3=おんなの海峡
TTITLE4=北の宿から
TTITLE5=大阪しぐれ
TTITLE6=ふたりの大阪
TTITLE7=浪花恋しぐれ
TTITLE8=夫婦坂
TTITLE9=千年の古都
TTITLE10=小樽運河
TTITLE11=夕陽坂
TTITLE12=たそがれの橋
TTITLE13=晩秋の駅
EXTD=
EXTT0=
EXTT1=
EXTT2=
EXTT3=
EXTT4=
EXTT5=
EXTT6=
EXTT7=
EXTT8=
EXTT9=
EXTT10=
EXTT11=
EXTT12=
EXTT13=
PLAYORDER=
